<svg xmlns="http://www.w3.org/2000/svg" width="24" height="24" fill="#000000" viewBox="0 0 24 24">
  <path d="M12 4.5a1 1 0 0 1 1-1h0a1 1 0 1 1-2 0h0a1 1 0 0 1 1 1Zm6.364 1.636a1 1 0 1 1 1.414-1.414h0a1 1 0 0 1-1.414 1.414ZM19.5 11a1 1 0 1 1 0 2h0a1 1 0 1 1 0-2Zm-1.636 6.364a1 1 0 1 1 1.414 1.414h0a1 1 0 0 1-1.414-1.414ZM13 19.5a1 1 0 0 1-2 0h0a1 1 0 0 1 2 0ZM6.636 17.364a1 1 0 1 1-1.414 1.414h0a1 1 0 0 1 1.414-1.414ZM4.5 13a1 1 0 0 1 0-2h0a1 1 0 1 1 0 2Zm1.636-6.364a1 1 0 0 1-1.414-1.414h0a1 1 0 1 1 1.414 1.414ZM12 7a5 5 0 1 1 0 10A5 5 0 0 1 12 7Z"/>
</svg>